<svg id="Capa_1" data-name="Capa 1" xmlns="http://www.w3.org/2000/svg" viewBox="0 0 238.79 215.44"><title>Logo_Juan</title><path d="M167.46,84.11q1-.49,1.84,1.23a2.13,2.13,0,0,1-.86,2.94,27.26,27.26,0,0,1-2.82,2.08l-3.31,2.08q-6.87,3.44-13.73,7l-14,7.23a11.38,11.38,0,0,0-2.94,2q-1,1,1.23,3.68a12.18,12.18,0,0,1,2.08,4.54,22.77,22.77,0,0,1,.61,5.27,142.11,142.11,0,0,1-.86,22.93q-1.35,11.16-3.8,22.44-4.17,17.66-9.32,34.58a351.64,351.64,0,0,1-12.26,33.84,113.67,113.67,0,0,1-11.53,20.6A36.18,36.18,0,0,1,88.25,266a27.92,27.92,0,0,1-12.75,4.29q-4.91.49-9.93,1.35a38.56,38.56,0,0,1-10.18.37,28.08,28.08,0,0,1-19.62-8.09,30.89,30.89,0,0,1-9.32-19.62A69.29,69.29,0,0,1,26.94,230a100.55,100.55,0,0,1,2.94-14,126.39,126.39,0,0,1,5-16.68,76.64,76.64,0,0,1,8-15.45,12.79,12.79,0,0,1,7.48-5.76,11.59,11.59,0,0,1,9,.37Q64.46,181,62,189.07v0.25q-1.72,3.92-3.07,7.85t-2.57,8.09l0.24-1v0.49H56.37c-0.33.82-.61,1.6-0.86,2.33s-0.53,1.51-.86,2.33h3.19q0,7.85-.12,15.57t-0.12,15.57a11.45,11.45,0,0,0,.86,4.17,35.77,35.77,0,0,1,1.35,4.17q0.74,1.72,1.84,1.84t2.08-1.59q2.21-4.42,4.66-8.83a65.25,65.25,0,0,0,4.17-9.07q3.68-9.81,7.11-19.5t6.87-20q4.9-15.45,9.44-30.66a258.69,258.69,0,0,0,7.23-31.39,13.82,13.82,0,0,0,.49-3.19q0.49-3.92-.12-4.41t-4.29,1a110.65,110.65,0,0,1-18.15,6.26q-9.32,2.33-18.88,4.54a8.35,8.35,0,0,1-4.42-.24,25,25,0,0,1-5.4-2.21,43.52,43.52,0,0,1-5-3.19,8.9,8.9,0,0,1-3.07-3.43,6.22,6.22,0,0,1,0-5.4,6.73,6.73,0,0,1,4.41-3.68,88.89,88.89,0,0,1,9.44-4.29q4.78-1.84,9.69-3.8Q87.51,99.81,107,91.71t39.12-15.94q3.68-1.47,5.88-2.21a5.87,5.87,0,0,1,3.68-.24,5.49,5.49,0,0,1,2.7,2.33q1.22,1.84,3.19,5.27a28.56,28.56,0,0,1,2.09,2.82Q164.52,85.09,167.46,84.11ZM51.71,248.92A3.64,3.64,0,0,0,52.93,251a8.72,8.72,0,0,1,1.72,2.08,57.62,57.62,0,0,1-2-12.87,111.71,111.71,0,0,1,.24-12.88q0.49-4.66.86-8.58t0.61-8.09A77,77,0,0,0,50,229.54,52.28,52.28,0,0,0,51.71,248.92Zm3.43,4.9a0.21,0.21,0,0,1-.24-0.24v0.49Zm4.42-50.28a13,13,0,0,1-.74,2.94c-0.33.82-.66,1.72-1,2.7a6,6,0,0,1-.61-2.08,9.17,9.17,0,0,0-.61-2.33,3.82,3.82,0,0,1,1-1.47,3.11,3.11,0,0,0,1.47-1.72A15.36,15.36,0,0,1,59.55,203.54Zm-1.72,5.64a0.22,0.22,0,0,0,.25.25H57.84v-0.25ZM113.26,191a4.09,4.09,0,0,0,.25-1.23,0.22,0.22,0,0,1-.25.25v1Zm1.72-8.09a9.37,9.37,0,0,1,1-2.21,1.37,1.37,0,0,1,.49-0.74,2,2,0,0,0-1.47.49,1.1,1.1,0,0,0-.25,1.23A4.12,4.12,0,0,1,115,182.94Zm1.72-5.4-0.49-.49a2.47,2.47,0,0,1,.24,1.1,2.41,2.41,0,0,0,.25,1.1v-1.72Zm1.72-8.58a1,1,0,0,0,.24-0.74v-0.74a2.33,2.33,0,0,0-.74,1,0.22,0.22,0,0,0,.25.24Zm2-8.58a5.6,5.6,0,0,1,.12-1.1,5.65,5.65,0,0,0,.12-1.1,13.85,13.85,0,0,0-.74-1.72,5.79,5.79,0,0,1-.12,1.1,1.65,1.65,0,0,0,.12,1.1A10,10,0,0,0,120.38,160.38Zm-0.49-4.17q2,0,2.21-1.1a12.11,12.11,0,0,0,.24-2.57,1.74,1.74,0,0,0-.12-0.74,1,1,0,0,1-.12-0.49,5.21,5.21,0,0,0-1.23,1,6,6,0,0,0-.61,2A17.54,17.54,0,0,1,119.89,156.21Zm4.17-11.77q1-5.64,1.6-11.16t1.59-11.16a2,2,0,0,0-.74-1.23,5.71,5.71,0,0,1-1.23-2q-0.49,6.38-1.47,12.63t-1.72,12.63a3.69,3.69,0,0,0,.49,1.47,1.12,1.12,0,0,1,.61-0.61A2.4,2.4,0,0,0,124.05,144.44Zm2-33.11a4.13,4.13,0,0,1-1.47.86,1.18,1.18,0,0,0-1,.86q0.49,1.47.86,2.82c0.24,0.9.53,1.84,0.86,2.82q0.49-2.21,1-5.15a1,1,0,0,0,.24-1.1C126.34,112,126.18,111.66,126,111.33Z" transform="translate(-26.28 -57.03)"/><path d="M261.51,96q7.68,16.19-1.8,29.76a47,47,0,0,1-8.75,10q-5,4.25-10.39,8a173.61,173.61,0,0,1-20.19,11.61Q210,160.43,199,165a24.76,24.76,0,0,0-3.76,1.8,5.63,5.63,0,0,0-2,2,6.06,6.06,0,0,0-.65,3,49.43,49.43,0,0,0,.33,5,11.32,11.32,0,0,0,.9,3.19q0.74,1.72-.9,3.51a6.29,6.29,0,0,1-3.68,2.13,19,19,0,0,1-4.33.16q-6.71-.49-10-7.2-1.64-2.94-2.29-3.27t-3.27.49a66.8,66.8,0,0,1-8.67,2.13,11.93,11.93,0,0,1-3.92.33,10.45,10.45,0,0,1-3.68-1,7.85,7.85,0,0,1-2.86-2.29,6.79,6.79,0,0,1-1.31-3.76,1.37,1.37,0,0,1,.49-1.31,8.42,8.42,0,0,1,1.14-1q3.6-1.3,7.11-2.53t7.11-2.53a16.11,16.11,0,0,0,1.72-.82,16.43,16.43,0,0,1,1.72-.82,9.13,9.13,0,0,1-1.8.16,9.24,9.24,0,0,0-1.8.16q-3.11,1-6.21,2t-6.38,1.88a1.4,1.4,0,0,1-1.14-.33,11.53,11.53,0,0,0-1.63-.82,2.45,2.45,0,0,0,1-.82,2.42,2.42,0,0,1,1.14-.82q4.41-2,8.91-3.84l9.24-3.84a7,7,0,0,0,2.86-2.29,8,8,0,0,0,1.23-4.25q0.16-7.52,1.06-15.37t2-15.29q1.06-7.44,2-14.39t1.47-12.67a11.21,11.21,0,0,1,.65-4Q181.55,86,182,84.24a1.79,1.79,0,0,0,.08-0.9A3.61,3.61,0,0,1,182,82.6a5.06,5.06,0,0,0-1.47.16q-3.27,1.15-5,.33t-3.52-4.25a12,12,0,0,1-1.39-3.27,6.35,6.35,0,0,0-2-3.11,3.47,3.47,0,0,1-1.14-3.35,5,5,0,0,1,2.13-3.35,33.67,33.67,0,0,1,3.76-2.37,43.38,43.38,0,0,1,3.92-1.88,64.23,64.23,0,0,1,16.51-4,87.85,87.85,0,0,1,17.33-.08A83,83,0,0,1,225.45,60a63.27,63.27,0,0,1,13.82,5.64,42.23,42.23,0,0,1,12,9.48,35.35,35.35,0,0,1,7.28,14.22q0.81,1.8,1.47,3.52A24.06,24.06,0,0,0,261.51,96ZM179.1,70.5a11.14,11.14,0,0,0,1.06-.82,11.46,11.46,0,0,1,1.06-.82,14,14,0,0,0-1.55.08C179.18,69,179,69.52,179.1,70.5Zm3.27-1.8a0.49,0.49,0,0,0-.33-0.16V68.7h0.33Zm2.62,0a9.22,9.22,0,0,0,1.23-.74l1.06-.74a0.78,0.78,0,0,1-.41-0.16,3.34,3.34,0,0,0-.74-0.33l-1.06.74a8.36,8.36,0,0,0-1.06.9A2.44,2.44,0,0,0,185,68.7Zm10.14,83.88-0.16-.16v0.16h0.16ZM221.61,132a21.54,21.54,0,0,0,6.71-3.6,68.28,68.28,0,0,0,8.26-7.11,80.42,80.42,0,0,0,7.85-9.16A43,43,0,0,0,250,102.3a19,19,0,0,0,1.39-9.07,9.22,9.22,0,0,0-4.58-6.87,60.58,60.58,0,0,0-16.43-7.52,71.07,71.07,0,0,0-15.94-2.62h-6a5,5,0,0,0-2.86.65,3.48,3.48,0,0,0-1.14,2.45q-0.24,1.8-1.06,5.4Q203.13,86,203,87.34T202.65,90q-0.82,5.72-1.8,12.18t-2,13.16q-1,6.71-2,13.24t-1.64,12.1a2.93,2.93,0,0,0-.08,1.8c0.16,0.55.3,1.09,0.41,1.63a11.28,11.28,0,0,1,1.39-.24,6,6,0,0,0,1.55-.41,77.89,77.89,0,0,1,11.53-5.56A62,62,0,0,0,221.61,132ZM201,150.29a11.39,11.39,0,0,1,2-.41,6,6,0,0,0,1.72-.41,1.76,1.76,0,0,1-1.06,0c-0.38-.11-0.74-0.19-1.06-0.24a1.67,1.67,0,0,0-.9.08A1.65,1.65,0,0,0,201,150.29Zm8.83-85a1.83,1.83,0,0,0-1,.65,0.43,0.43,0,0,1,.41.16,0.41,0.41,0,0,0,.41.16q2.13,0.33,4,.49t3.68,0.49a2.48,2.48,0,0,1-.41-1.06c-0.06-.38-0.19-0.57-0.41-0.57a19.06,19.06,0,0,0-3.35-.33h-3.35Zm3.43,79c0.33,0.33.43,0.49,0.33,0.49a1,1,0,0,0,.57-0.16,6.15,6.15,0,0,1,.57-0.33h-1.47Zm3.6-1.31a7.87,7.87,0,0,0-1.48-.16c-0.43,0-.55.44-0.33,1.31a3.91,3.91,0,0,1,.74-0.57C216.08,143.34,216.43,143.15,216.87,142.93Zm5.23-75.7-0.65-.65a1,1,0,0,0-.66-0.33,10.53,10.53,0,0,1-1.38.57q-0.74.24-1.56,0.57a14.48,14.48,0,0,1,1.56.08,12,12,0,0,0,1.38.08A2.89,2.89,0,0,0,222.1,67.23Zm3.6,70.8a15.44,15.44,0,0,0,2.45-.82,3.21,3.21,0,0,0-1.8-.57C225.91,136.69,225.7,137.16,225.7,138Zm2.45-.82a16.55,16.55,0,0,1,1.72-2l2-2a10.77,10.77,0,0,1-1.39.57,7.14,7.14,0,0,0-1.31.57,2.29,2.29,0,0,0-.9,1A3.56,3.56,0,0,0,228.15,137.21Zm0.49-68a0.48,0.48,0,0,0-.33.16h0.17Zm4.09,63.44a12.56,12.56,0,0,0,2-.49q1-.33.17-2.45a3.88,3.88,0,0,1-1.06,1.47A3.91,3.91,0,0,0,232.73,132.63Z" transform="translate(-26.28 -57.03)"/><path d="M205.58,190.56a7.31,7.31,0,0,1,.11,2.81q-0.83,5.62-1.82,11t-1.61,10.93q-1.15,8.64-1.87,17.07t-1.56,17q-0.42,4.37-.42,8.59a67.11,67.11,0,0,0,.52,8.38q0.63,1.87-1.46,2.6-4,1-5.25.36t-1.82-4.63a17.13,17.13,0,0,1-.37-2.91c0-1-.08-1.94-0.16-2.91-0.07-1.18-.09-2.36-0.05-3.54s0.05-2.39.05-3.64q0.21-9.16,1.09-18.11t2.45-18a25.5,25.5,0,0,1,1-4.16q0.68-2.08,1.2-4.16a11.13,11.13,0,0,0,.31-1.41,11.26,11.26,0,0,1,.31-1.41,0.35,0.35,0,0,0-.16-0.31,0.35,0.35,0,0,1-.16-0.31,0.7,0.7,0,0,0-.52.21,17.07,17.07,0,0,1-1.46,2.08,163.67,163.67,0,0,0-10,17,192.2,192.2,0,0,0-8.07,18,10.29,10.29,0,0,1-1.87,2.7q-1,1-2.19,2.29a1.76,1.76,0,0,1-.26.21,0.19,0.19,0,0,1-.26,0,28.6,28.6,0,0,1-3-1.15,3,3,0,0,1-1.25,1.4,1.42,1.42,0,0,1-1.56-.26,7.21,7.21,0,0,1-1.51-1.56,8.41,8.41,0,0,1-1.09-2.08q-0.52-2.7-1-5.52t-1-5.62q-0.21-1.77-.31-3.64t-0.32-3.64a1.56,1.56,0,0,0-.16-0.57c-0.1-.24-0.19-0.47-0.26-0.68a5.8,5.8,0,0,0-.42.47,3.71,3.71,0,0,0-.42.67q-1.15,4.17-2.34,8.27t-2.13,8.48q-1.15,4.37-2.08,8.8t-2,8.9q-1,4-4.27,4.06h-0.63a8.13,8.13,0,0,0-2.45-1.15,3.52,3.52,0,0,0-2.65.52c-0.35.28-.78,0-1.3-0.73a3.46,3.46,0,0,1-.68-2.29q0.1-2.19.21-4.42a33.93,33.93,0,0,1,.52-4.53,159,159,0,0,1,6.71-28.67,193.56,193.56,0,0,1,11.5-27.11,4,4,0,0,0,.31-0.83q1.46-2,2.19.11c0.35,0.83.71,1.21,1.09,1.14a1.23,1.23,0,0,0,.88-0.83q0.73-1.46,1.77-1.36a4.29,4.29,0,0,1,1.87.63,22,22,0,0,1,2,1,2.77,2.77,0,0,1,1.09,2.19q1,8.85,1.35,17.44t0.42,17.43a2.22,2.22,0,0,0,.21,1.15,0.93,0.93,0,0,0,.63.62c0,0.07.05,0.05,0.16-.05a0.49,0.49,0,0,0,.16-0.36c0.42-.83.81-1.68,1.2-2.55s0.75-1.75,1.09-2.65A176.11,176.11,0,0,1,183.51,208q5.41-9.21,11.76-18.06a4.78,4.78,0,0,1,2.29-1.82,7,7,0,0,1,3-.47,7.49,7.49,0,0,1,3,.83A4.36,4.36,0,0,1,205.58,190.56ZM167.38,243a4.11,4.11,0,0,1,.21-0.52,1,1,0,0,0,.11-0.42,5.7,5.7,0,0,0-.05-0.78,5.93,5.93,0,0,1-.05-0.88q-0.52-4.79-1-9.78t-1.09-10.51V207.84a1.55,1.55,0,0,0-.11-0.57c-0.07-.17-0.14-0.33-0.21-0.47q-0.21.21-.47,0.42a0.63,0.63,0,0,0-.26.52c-0.14.77-.3,1.56-0.47,2.4a9.31,9.31,0,0,0-.16,2.6q0.52,6.35,1.09,12.75t1.2,12.85q0.1,0.94.26,2c0.11,0.69.22,1.35,0.37,2a0.33,0.33,0,0,0,.21.31A1.21,1.21,0,0,1,167.38,243Z" transform="translate(-26.28 -57.03)"/><path d="M256.38,230.11a67.91,67.91,0,0,1,5.1,4.79,12.4,12.4,0,0,1,3.12,6.56,8.84,8.84,0,0,1,.21,3.7,6,6,0,0,1-2.19,2.86,23.6,23.6,0,0,1-5.15,3.07q-2.76,1.2-5.46,2.13-7.28,2.29-14.57,4.42T222.86,262a6.72,6.72,0,0,1-.94.31,4.08,4.08,0,0,0-.83.32,2,2,0,0,0-1.67,2.29v0.32q-0.42,4.16-2.08,5.78t-5.62,1.51q-2.19,0-2.5-2.4a8.17,8.17,0,0,1,0-1.82,6.94,6.94,0,0,0,0-1.72q0-1.77-.47-2.08t-2,.41q-1.56.52-3.17,1.25a22.71,22.71,0,0,0-3.17,1.77,3.07,3.07,0,0,1-3.85-.73q-2.71-2.7-2.45-4.79t3.59-3.85q2.39-1.15,4.89-2.19t5-2a3.59,3.59,0,0,0,1.77-1.09,4.63,4.63,0,0,0,.73-2.13q0.32-4.78.73-9.52t0.83-9.42a2.2,2.2,0,0,0-.11-1.35,1.09,1.09,0,0,0-1,.21,1.83,1.83,0,0,1-1.72-.36,4.89,4.89,0,0,1-1-1.51,5.61,5.61,0,0,1-.16-1.61,2.58,2.58,0,0,1,.88-1.51q1-1.14,2.08-2.34a30.72,30.72,0,0,0,2-2.55,0.94,0.94,0,0,0,.52-0.62c0.07-.28.14-0.59,0.21-0.94q0.83-4.68,1.61-9.16t1.61-9.16a1.67,1.67,0,0,0-.11-1.36c-0.21-.27-0.59-0.21-1.15.21a14.58,14.58,0,0,0-3.64,2.81c-0.83.62-1.35,0.42-1.56-.62A5.09,5.09,0,0,1,210,200a3.12,3.12,0,0,1,1.35-2,11.62,11.62,0,0,1,1.87-1.51q1-.68,2.19-1.3a21.26,21.26,0,0,1,5.41-2.5q2.81-.83,5.83-1.46,5-.94,9.89-1.51a56.6,56.6,0,0,1,10-.26l3.85,0.42q2,0.21,4.06.62a6.46,6.46,0,0,1,2.71,1.2q1.14,0.88,2.5,2.13a10.62,10.62,0,0,1,2.81,4.32,26.46,26.46,0,0,0,2.08,4.63,2.9,2.9,0,0,1,.47,2.5,6.14,6.14,0,0,1-1.41,2.39q-1.35.94-2.65,1.87a20.22,20.22,0,0,1-2.76,1.67q-3.75,2-7.6,3.75t-7.6,3.74a12,12,0,0,1-2,.89,22.82,22.82,0,0,0-2.13.83,13.3,13.3,0,0,0-2,1.15,8.59,8.59,0,0,0-1.82,1.72,1.41,1.41,0,0,1-1.4.62,8,8,0,0,0-1.93.21,1.31,1.31,0,0,0-.42.73,0.6,0.6,0,0,0,.42.21q1.56,0.21,3.07.52a22.45,22.45,0,0,0,3.07.42,43.86,43.86,0,0,1,8.27,1.61,78.35,78.35,0,0,1,8,2.86c0.35,0.14.66,0.28,0.94,0.42a3.88,3.88,0,0,0,.83.31,0.66,0.66,0,0,0,.57-0.05,2.62,2.62,0,0,0,.47-0.37c-0.07-.14-0.14-0.26-0.21-0.37A2.71,2.71,0,0,1,256.38,230.11Zm-4,8.53a1.18,1.18,0,0,0,.42-0.62,2.06,2.06,0,0,0-.94-0.21,1.74,1.74,0,0,0-.42.05l-0.63.16-8.95,3.33q-4.48,1.67-9.06,3.23a39.4,39.4,0,0,1-4.06,1.25l-4.16,1c0.56-.35,1.07-0.66,1.56-0.94a11,11,0,0,1,1.56-.73q8-2.7,16.55-5.72,1.14-.42,2.45-0.94l2.55-1a0.47,0.47,0,0,0,.26-0.26,1.08,1.08,0,0,1,.26-0.36,0.56,0.56,0,0,1-.26-0.21,0.59,0.59,0,0,0-.26-0.21,8,8,0,0,0-1.25-.31l-1.25-.21q-4.79-.63-9.52-1.15t-9.52-.83a4.87,4.87,0,0,1-1.15-.16,4.73,4.73,0,0,0-1.15-.16,1.74,1.74,0,0,0-1,.32,2.33,2.33,0,0,0-.78,1.25c0,0.07-.07.11-0.21,0.11h-0.31q-0.83-1.25-1.2-.78a2.06,2.06,0,0,0-.37,1.3l-0.42,5q-0.21,2.5-.42,5.1-0.21,1.25.47,1.41a3.19,3.19,0,0,0,1.51-.05,1.59,1.59,0,0,1-.62.78l-0.73.47a0.46,0.46,0,0,0-.26.32,0.92,0.92,0,0,1-.26.41,0.72,0.72,0,0,1,.31.05,0.73,0.73,0,0,0,.31.05l1.56-.31q6.45-2.19,12.91-4.32t12.91-4.42a7.26,7.26,0,0,0,1.82-.68Q251.58,239.17,252.42,238.64Zm-29.14-1.25-0.21.21a0.31,0.31,0,0,0-.1-0.21c-0.07-.07,0-0.17.1-0.31l0.11-.11a0.47,0.47,0,0,0,.05.21A0.48,0.48,0,0,1,223.28,237.39Zm2.39-32.58c-0.14,1-.31,2.1-0.52,3.17s-0.38,2.13-.52,3.17a1.11,1.11,0,0,0,.26.57,4.59,4.59,0,0,1,.36.57,4,4,0,0,1,.42-0.37,1.6,1.6,0,0,0,.42-0.57c0.14-1.11.29-2.2,0.47-3.28s0.4-2.31.68-3.7a0.6,0.6,0,0,0-.21-0.31,3.16,3.16,0,0,1-.42-0.52,1.71,1.71,0,0,1-.57.52A0.77,0.77,0,0,0,225.67,204.82Zm1-7.81a9.26,9.26,0,0,0-.26,1.72c0,0.59-.09,1.16-0.16,1.72a0.58,0.58,0,0,0,.21.31,1.1,1.1,0,0,0,.31.21,2.44,2.44,0,0,1,2.29-.88,5.61,5.61,0,0,0,2.29.05q4.89-1,9.73-1.62t9.73-.78a3.18,3.18,0,0,0,1.25-.26q0.63-.26,1.25-0.47a4,4,0,0,0,.62-0.52l0.52-.52a2,2,0,0,0-.52-0.37,5.42,5.42,0,0,0-.62-0.26q-2.81-.52-5.62-0.94t-5.52-.73q-3.44.52-6.66,1.09t-6.45,1.09c-0.49.07-1,.12-1.46,0.16A1.06,1.06,0,0,0,226.71,197Zm17.9,4.89a0.66,0.66,0,0,0,.31-0.31,1.61,1.61,0,0,1,.32-0.42,1.75,1.75,0,0,1-.52-0.26,0.69,0.69,0,0,0-.42-0.16q-2.81.21-5.52,0.47t-5.41.68q-1.67.21-2.6,0.42a2.59,2.59,0,0,0-1.41.73,3.22,3.22,0,0,0-.68,1.51q-0.21,1-.42,2.76c-0.07.35-.14,0.66-0.21,0.94a2.75,2.75,0,0,0-.11.62q-0.31,2.6,1.35,1.56,3.85-2.08,7.65-4.21ZM237.85,224a0.84,0.84,0,0,0,.52-0.16,0.29,0.29,0,0,1,.42.05,7.38,7.38,0,0,1,2,.94,5.28,5.28,0,0,0-2.08-.62,0.87,0.87,0,0,0-.36-0.11A1.62,1.62,0,0,1,237.85,224Zm2.92,0.83q0.83-.21,1.72-0.36a1.86,1.86,0,0,1,1.71.78l-1.77-.21Zm7.6,1.25a0.22,0.22,0,0,1-.16-0.05,0.39,0.39,0,0,0-.26-0.05c0-.07.11-0.11,0.31-0.11l0.21,0.11A0.09,0.09,0,0,0,248.36,226.05Zm1.77,0.83v-0.32l0.21,0.21Zm6.14,2.91a0.22,0.22,0,0,0,.05.16,0.22,0.22,0,0,1,.05.16l-0.21-.21Zm3.64-32.58a6.24,6.24,0,0,1-.62.83,0.85,0.85,0,0,0,.26.11,0.88,0.88,0,0,1,.26.11,1.52,1.52,0,0,0,.52-0.73Z" transform="translate(-26.28 -57.03)"/></svg>